<?xml version="1.0" encoding="UTF-8" standalone="no"?><svg xmlns="http://www.w3.org/2000/svg" xmlns:xlink="http://www.w3.org/1999/xlink" contentStyleType="text/css" height="483px" preserveAspectRatio="none" style="width:671px;height:483px;background:#FFFFFF;" version="1.1" viewBox="0 0 671 483" width="671px" zoomAndPan="magnify"><defs/><g><!--MD5=[d5ac3844f66b12d9e08170e47495e096]
cluster app--><g id="cluster_app"><rect height="273" rx="2.5" ry="2.5" style="stroke:#444444;stroke-width:1.0;fill:none;stroke-dasharray:7.0,7.0;" width="281" x="7" y="7"/><text fill="#444444" font-family="sans-serif" font-size="16" font-weight="bold" lengthAdjust="spacing" textLength="31" x="132" y="25.6094">App</text><text fill="#444444" font-family="sans-serif" font-size="12" font-weight="bold" lengthAdjust="spacing" textLength="63" x="116" y="41.582">[Container]</text></g><!--MD5=[0750a4c2cfbcd747d0f1e2b1d5e5fd03]
entity produtos--><g id="elem_produtos"><rect fill="#85BBF0" height="55.2188" rx="2.5" ry="2.5" style="stroke:#78A8D8;stroke-width:0.5;" width="91" x="31.5" y="69"/><text fill="#000000" font-family="sans-serif" font-size="16" font-weight="bold" lengthAdjust="spacing" textLength="71" x="41.5" y="95.6094">Produtos</text><text fill="#000000" font-family="sans-serif" font-size="12" font-style="italic" lengthAdjust="spacing" textLength="33" x="60.5" y="111.582">[Ionic]</text></g><!--MD5=[6071f65db2fa2e451647a9023c53d52d]
entity carrinho--><g id="elem_carrinho"><rect fill="#85BBF0" height="55.2188" rx="2.5" ry="2.5" style="stroke:#78A8D8;stroke-width:0.5;" width="87" x="157.5" y="69"/><text fill="#000000" font-family="sans-serif" font-size="16" font-weight="bold" lengthAdjust="spacing" textLength="67" x="167.5" y="95.6094">Carrinho</text><text fill="#000000" font-family="sans-serif" font-size="12" font-style="italic" lengthAdjust="spacing" textLength="33" x="184.5" y="111.582">[Ionic]</text></g><!--MD5=[742039b48725ee2ab3e2a8074bc4a890]
entity pedido--><g id="elem_pedido"><rect fill="#85BBF0" height="55.2188" rx="2.5" ry="2.5" style="stroke:#78A8D8;stroke-width:0.5;" width="74" x="40" y="201"/><text fill="#000000" font-family="sans-serif" font-size="16" font-weight="bold" lengthAdjust="spacing" textLength="54" x="50" y="227.6094">Pedido</text><text fill="#000000" font-family="sans-serif" font-size="12" font-style="italic" lengthAdjust="spacing" textLength="33" x="60.5" y="243.582">[Ionic]</text></g><!--MD5=[7aa52dc426cd2802e5dddeb4cc1c4f8d]
entity cadastro--><g id="elem_cadastro"><rect fill="#85BBF0" height="55.2188" rx="2.5" ry="2.5" style="stroke:#78A8D8;stroke-width:0.5;" width="90" x="149" y="201"/><text fill="#000000" font-family="sans-serif" font-size="16" font-weight="bold" lengthAdjust="spacing" textLength="70" x="159" y="227.6094">Cadastro</text><text fill="#000000" font-family="sans-serif" font-size="12" font-style="italic" lengthAdjust="spacing" textLength="33" x="177.5" y="243.582">[Ionic]</text></g><!--MD5=[e29493a8775effcafa538aa0485107d1]
entity auth--><g id="elem_auth"><rect fill="#999999" height="40.125" rx="2.5" ry="2.5" style="stroke:#8A8A8A;stroke-width:0.5;" width="203" x="312.5" y="208.5"/><text fill="#FFFFFF" font-family="sans-serif" font-size="16" font-weight="bold" lengthAdjust="spacing" textLength="183" x="322.5" y="235.1094">Serviço de autenticação</text></g><!--MD5=[e2307af040e3f87d22824e7603ca28ec]
entity api--><g id="elem_api"><rect fill="#438DD5" height="55.2188" rx="2.5" ry="2.5" style="stroke:#3C7FC0;stroke-width:0.5;" width="115" x="550.5" y="201"/><text fill="#FFFFFF" font-family="sans-serif" font-size="16" font-weight="bold" lengthAdjust="spacing" textLength="26" x="595" y="227.6094">API</text><text fill="#FFFFFF" font-family="sans-serif" font-size="12" font-style="italic" lengthAdjust="spacing" textLength="95" x="560.5" y="243.582">[Node.js Express]</text></g><!--MD5=[a7d26c2f8cc5a6a8ad879278349a2334]
link app to api--><g id="link_app_api"><path d="M288.0273,100.68 C288.1802,100.7406 288.3352,100.802 288.4921,100.8643 C293.5148,102.8555 300.5992,105.6639 309.2953,109.1109 C326.6875,116.005 350.5263,125.4538 377.21,136.03 C430.5775,157.1825 495.325,182.845 542.64,201.6 " fill="none" id="app-to-api" style="stroke:#666666;stroke-width:1.0;"/><polygon fill="#666666" points="550.17,204.58,543.8335,198.8486,541.6273,204.4283,550.17,204.58" style="stroke:#666666;stroke-width:1.0;"/><text fill="#666666" font-family="sans-serif" font-size="12" font-weight="bold" lengthAdjust="spacing" textLength="54" x="464" y="167.457">Consome</text></g><!--MD5=[599cead610bb96599a7633b8ebf1d273]
link app to auth--><g id="link_app_auth"><path d="M288.1887,105.4402 C288.2829,105.5317 288.3779,105.6238 288.4735,105.7166 C288.6649,105.9023 288.859,106.0907 289.0559,106.2818 C289.4498,106.6639 289.8547,107.0568 290.2703,107.4601 C291.1016,108.2667 291.9758,109.1148 292.89,110.0019 C300.2038,117.0981 310.08,126.68 321.055,137.3275 C343.005,158.6225 369.35,184.18 388.38,202.64 " fill="none" id="app-to-auth" style="stroke:#666666;stroke-width:1.0;"/><polygon fill="#666666" points="394.22,208.31,390.567,200.5863,386.3892,204.8927,394.22,208.31" style="stroke:#666666;stroke-width:1.0;"/><text fill="#666666" font-family="sans-serif" font-size="12" font-weight="bold" lengthAdjust="spacing" textLength="54" x="357" y="167.457">Autentica</text></g><!--MD5=[a9505a322f24a722baf4b80e014c984c]
link produtos to carrinho--></g></svg>