<?xml version="1.0" encoding="UTF-8" standalone="no"?><svg xmlns="http://www.w3.org/2000/svg" xmlns:xlink="http://www.w3.org/1999/xlink" contentStyleType="text/css" height="483px" preserveAspectRatio="none" style="width:878px;height:483px;background:#FFFFFF;" version="1.1" viewBox="0 0 878 483" width="878px" zoomAndPan="magnify"><defs/><g><!--MD5=[7442f3b126ee602ae02566c1a49e158a]
cluster api--><g id="cluster_api"><rect height="273" rx="2.5" ry="2.5" style="stroke:#444444;stroke-width:1.0;fill:none;stroke-dasharray:7.0,7.0;" width="278" x="7" y="7"/><text fill="#444444" font-family="sans-serif" font-size="16" font-weight="bold" lengthAdjust="spacing" textLength="26" x="133" y="25.6094">API</text><text fill="#444444" font-family="sans-serif" font-size="12" font-weight="bold" lengthAdjust="spacing" textLength="63" x="114.5" y="41.582">[Container]</text></g><!--MD5=[0750a4c2cfbcd747d0f1e2b1d5e5fd03]
entity produtos--><g id="elem_produtos"><rect fill="#85BBF0" height="55.2188" rx="2.5" ry="2.5" style="stroke:#78A8D8;stroke-width:0.5;" width="91" x="31.5" y="69"/><text fill="#000000" font-family="sans-serif" font-size="16" font-weight="bold" lengthAdjust="spacing" textLength="71" x="41.5" y="95.6094">Produtos</text><text fill="#000000" font-family="sans-serif" font-size="12" font-style="italic" lengthAdjust="spacing" textLength="48" x="53" y="111.582">[Node.js]</text></g><!--MD5=[1e1442be485db83ddb6fc6ae3222c27d]
entity estoque--><g id="elem_estoque"><rect fill="#85BBF0" height="55.2188" rx="2.5" ry="2.5" style="stroke:#78A8D8;stroke-width:0.5;" width="84" x="158" y="69"/><text fill="#000000" font-family="sans-serif" font-size="16" font-weight="bold" lengthAdjust="spacing" textLength="64" x="168" y="95.6094">Estoque</text><text fill="#000000" font-family="sans-serif" font-size="12" font-style="italic" lengthAdjust="spacing" textLength="48" x="176" y="111.582">[Node.js]</text></g><!--MD5=[e59da59285fb26dfe1e74408fe2f8aee]
entity vendas--><g id="elem_vendas"><rect fill="#85BBF0" height="55.2188" rx="2.5" ry="2.5" style="stroke:#78A8D8;stroke-width:0.5;" width="78" x="38" y="201"/><text fill="#000000" font-family="sans-serif" font-size="16" font-weight="bold" lengthAdjust="spacing" textLength="58" x="48" y="227.6094">Vendas</text><text fill="#000000" font-family="sans-serif" font-size="12" font-style="italic" lengthAdjust="spacing" textLength="48" x="53" y="243.582">[Node.js]</text></g><!--MD5=[27a013aad345cdcc1840ed630973e4b9]
entity entrega--><g id="elem_entrega"><rect fill="#85BBF0" height="55.2188" rx="2.5" ry="2.5" style="stroke:#78A8D8;stroke-width:0.5;" width="80" x="151" y="201"/><text fill="#000000" font-family="sans-serif" font-size="16" font-weight="bold" lengthAdjust="spacing" textLength="60" x="161" y="227.6094">Entrega</text><text fill="#000000" font-family="sans-serif" font-size="12" font-style="italic" lengthAdjust="spacing" textLength="48" x="167" y="243.582">[Node.js]</text></g><!--MD5=[e29493a8775effcafa538aa0485107d1]
entity auth--><g id="elem_auth"><rect fill="#999999" height="40.125" rx="2.5" ry="2.5" style="stroke:#8A8A8A;stroke-width:0.5;" width="203" x="309.5" y="208.5"/><text fill="#FFFFFF" font-family="sans-serif" font-size="16" font-weight="bold" lengthAdjust="spacing" textLength="183" x="319.5" y="235.1094">Serviço de autenticação</text></g><!--MD5=[d112aecbd7ccc75573a6ee2503a173b3]
entity email--><g id="elem_email"><rect fill="#999999" height="40.125" rx="2.5" ry="2.5" style="stroke:#8A8A8A;stroke-width:0.5;" width="145" x="547.5" y="208.5"/><text fill="#FFFFFF" font-family="sans-serif" font-size="16" font-weight="bold" lengthAdjust="spacing" textLength="125" x="557.5" y="235.1094">Serviço de email</text></g><!--MD5=[f50ff5e4cd64f259303fc83dba1819fc]
entity database--><g id="elem_database"><rect fill="#438DD5" height="55.2188" rx="2.5" ry="2.5" style="stroke:#3C7FC0;stroke-width:0.5;" width="145" x="727.5" y="201"/><text fill="#FFFFFF" font-family="sans-serif" font-size="16" font-weight="bold" lengthAdjust="spacing" textLength="125" x="737.5" y="227.6094">Banco de dados</text><text fill="#FFFFFF" font-family="sans-serif" font-size="12" font-style="italic" lengthAdjust="spacing" textLength="45" x="777.5" y="243.582">[MySQL]</text></g><!--MD5=[5194daf164f60f68b297387c06713afb]
link api to database--><g id="link_api_database"><path d="M285.0337,99.0343 C289.644,99.9207 296.1127,101.1721 304.1073,102.738 C320.0966,105.8697 342.1894,110.2594 367.7263,115.5038 C418.8,125.9925 483.65,139.9 541,154 C616.71,172.61 635.05,179.54 710,201 C713.08,201.88 716.22,202.79 719.4,203.7 " fill="none" id="api-to-database" style="stroke:#666666;stroke-width:1.0;"/><polygon fill="#666666" points="727.33,206,720.4732,200.9025,718.8121,206.668,727.33,206" style="stroke:#666666;stroke-width:1.0;"/><text fill="#666666" font-family="sans-serif" font-size="12" font-weight="bold" lengthAdjust="spacing" textLength="131" x="606" y="167.457">Salva e consulta dados</text></g><!--MD5=[dcd173ae8e6a2c91b6e1fa4388899dd5]
link api to auth--><g id="link_api_auth"><path d="M285.1887,105.4402 C285.2829,105.5317 285.3779,105.6238 285.4735,105.7166 C285.6649,105.9023 285.859,106.0907 286.0559,106.2818 C286.4498,106.6639 286.8547,107.0568 287.2703,107.4601 C288.1016,108.2667 288.9758,109.1148 289.89,110.0019 C297.2038,117.0981 307.08,126.68 318.055,137.3275 C340.005,158.6225 366.35,184.18 385.38,202.64 " fill="none" id="api-to-auth" style="stroke:#666666;stroke-width:1.0;"/><polygon fill="#666666" points="391.22,208.31,387.567,200.5863,383.3892,204.8927,391.22,208.31" style="stroke:#666666;stroke-width:1.0;"/><text fill="#666666" font-family="sans-serif" font-size="12" font-weight="bold" lengthAdjust="spacing" textLength="54" x="354" y="167.457">Autentica</text></g><!--MD5=[f9a1adce3c8f952e196d60b869c85837]
link api to email--><g id="link_api_email"><path d="M285.4317,100.6948 C285.7638,100.8207 286.105,100.95 286.4551,101.0828 C292.0577,103.2068 299.9567,106.2012 309.6284,109.8673 C328.9719,117.1997 355.4063,127.2194 384.7425,138.3388 C443.415,160.5775 513.695,187.215 562.07,205.55 " fill="none" id="api-to-email" style="stroke:#666666;stroke-width:1.0;"/><polygon fill="#666666" points="569.74,208.45,563.3298,202.8011,561.1961,208.4089,569.74,208.45" style="stroke:#666666;stroke-width:1.0;"/><text fill="#666666" font-family="sans-serif" font-size="12" font-weight="bold" lengthAdjust="spacing" textLength="61" x="471" y="167.457">Envi e-mail</text></g><!--MD5=[9530358f245fece3f15ba3745da03696]
link produtos to estoque--></g></svg>